<svg xmlns="http://www.w3.org/2000/svg" width="400" height="400" viewBox="0 0 400 400" version="1.1"><path d="M 183.220 205.018 C 169.041 208.732, 144.043 221.318, 130 231.811 C 106.618 249.282, 94.935 268.193, 94.668 289 C 94.490 302.947, 99.080 313.065, 109.225 321.083 C 117.288 327.457, 119.849 328.178, 133.127 327.817 C 144.558 327.505, 144.894 327.429, 153.127 323.248 C 167.417 315.993, 192.600 295.355, 191.859 291.507 C 191.570 290.006, 189.695 291.316, 182.447 298.083 C 172.418 307.446, 162.495 315.196, 156.852 318.076 C 148.968 322.097, 138.265 325, 131.324 324.998 C 122.924 324.997, 118.611 323.020, 114.665 317.363 C 110.977 312.075, 110.308 306.250, 112.435 297.946 C 114.440 290.115, 122.894 272.206, 125.795 269.641 C 127.066 268.518, 136.129 265.681, 148.699 262.473 C 160.140 259.552, 173.100 255.943, 177.500 254.453 C 188.131 250.851, 200.570 244.545, 201.464 242.303 C 203.350 237.574, 213 209.052, 213 208.207 C 213 207.679, 210.779 206.291, 208.065 205.123 C 201.845 202.448, 193.170 202.411, 183.220 205.018 M 189.127 207.471 C 177.745 211.697, 161.723 224.545, 146.470 241.677 C 132.391 257.490, 128.846 263.762, 134.750 262.407 C 142.439 260.644, 156.317 255.412, 165.358 250.869 C 191.410 237.777, 205 224.801, 205 213.019 C 205 209.525, 204.555 208.699, 201.750 206.989 C 197.708 204.524, 196.987 204.552, 189.127 207.471 M 220.444 256.444 C 219.501 257.884, 218.979 259.312, 219.285 259.618 C 219.590 259.924, 220.612 258.995, 221.556 257.556 C 222.499 256.116, 223.021 254.688, 222.715 254.382 C 222.410 254.076, 221.388 255.005, 220.444 256.444" stroke="none" fill="#ff0000" fill-rule="evenodd"/><path d="M 284.974 62.490 C 281.536 64.313, 270.906 67, 267.131 67 C 264.722 67, 263.714 67.652, 262.502 69.995 C 261.650 71.643, 254.485 92.005, 246.580 115.245 C 231.840 158.575, 215.895 203.446, 214.086 206.682 C 212.428 209.648, 201.235 242.447, 196.975 256.824 C 193.953 267.019, 192.874 272.659, 192.377 280.847 C 191.754 291.097, 191.841 291.789, 194.456 297.315 C 195.956 300.487, 198.792 304.644, 200.756 306.551 C 204.187 309.884, 211.853 313.027, 216.432 312.978 C 223.507 312.903, 234.310 303.225, 244.869 287.500 C 252.147 276.661, 266 251.149, 266 248.584 C 266 247.713, 266.441 247, 266.981 247 C 267.520 247, 268.265 245.762, 268.635 244.250 C 269.005 242.737, 269.629 241.275, 270.022 241 C 270.974 240.334, 277 225.885, 277 224.269 C 277 221.429, 275.114 223.309, 273.008 228.250 C 267.877 240.288, 250.316 274.794, 245.720 281.869 C 234.808 298.669, 224.348 309, 218.252 309 C 216.926 309, 214.534 307.687, 212.923 306.077 C 210.295 303.449, 210 302.501, 210 296.686 C 210 288.035, 217.854 258.873, 221.078 255.550 C 221.585 255.028, 222 253.672, 222 252.538 C 222 249.205, 244.306 185.649, 274.834 102 C 279.751 88.525, 284.339 75.925, 285.029 74 C 285.719 72.075, 286.970 68.798, 287.809 66.717 C 289.640 62.173, 288.573 60.581, 284.974 62.490" stroke="none" fill="#06ac4d" fill-rule="evenodd"/><path d="M 178.500 0.631 C 172.265 1.285, 153.093 4.957, 147 6.664 C 130.808 11.200, 112.167 19.142, 97.219 27.872 C 79.579 38.174, 54.857 59.875, 42.687 75.739 C 22.682 101.815, 9.863 129.831, 3.216 162 C 0.866 173.375, 0.627 176.705, 0.567 199 C 0.497 224.599, 1.032 229.892, 5.534 248.108 C 9.429 263.871, 12.720 272.648, 21.056 289.500 C 32.664 312.969, 46.112 330.759, 65.566 348.382 C 94.163 374.286, 126.694 390.226, 166.024 397.604 C 179.143 400.065, 210.688 400.574, 226 398.571 C 270.755 392.716, 309.481 373.601, 341.541 341.541 C 373.909 309.174, 391.376 273.689, 399.155 224.500 C 400.651 215.045, 401.353 183.082, 400.121 180.521 C 399.587 179.409, 398.867 176.025, 398.521 173 C 391.372 110.468, 348.982 50.818, 291 21.699 C 270.833 11.572, 255.794 6.481, 233.991 2.403 C 225.741 0.860, 187.847 -0.351, 178.500 0.631 M 284.974 62.490 C 281.536 64.313, 270.906 67, 267.131 67 C 264.722 67, 263.714 67.652, 262.502 69.995 C 261.650 71.643, 254.485 92.005, 246.580 115.245 C 230.177 163.465, 215.301 205.079, 213.996 206.396 C 213.473 206.924, 211.053 206.409, 208.118 205.146 C 195.666 199.789, 176.041 204.810, 147.500 220.655 C 113.469 239.548, 94.995 263.446, 94.668 289 C 94.490 302.947, 99.080 313.065, 109.225 321.083 C 117.274 327.446, 119.861 328.179, 133 327.817 C 143.097 327.539, 145.223 327.161, 150.428 324.724 C 159.456 320.496, 171.470 312.076, 182 302.598 C 187.225 297.895, 191.797 294.036, 192.161 294.023 C 192.524 294.011, 193.818 296.058, 195.035 298.573 C 198.146 304.999, 203.393 309.742, 209.345 311.510 C 212.105 312.329, 215.294 312.990, 216.432 312.978 C 223.507 312.903, 234.310 303.225, 244.869 287.500 C 252.147 276.661, 266 251.149, 266 248.584 C 266 247.713, 266.441 247, 266.981 247 C 267.520 247, 268.265 245.762, 268.635 244.250 C 269.005 242.737, 269.629 241.275, 270.022 241 C 270.974 240.334, 277 225.885, 277 224.269 C 277 221.429, 275.114 223.309, 273.008 228.250 C 267.877 240.288, 250.316 274.794, 245.720 281.869 C 234.808 298.669, 224.348 309, 218.252 309 C 216.902 309, 214.504 307.658, 212.788 305.942 C 209.741 302.895, 209.731 302.849, 210.264 294.192 C 210.898 283.886, 216.325 265.024, 220.312 259.271 C 221.994 256.845, 222.739 254.717, 222.383 253.358 C 221.582 250.294, 237.914 203.165, 274.834 102 C 279.751 88.525, 284.339 75.925, 285.029 74 C 285.719 72.075, 286.970 68.798, 287.809 66.717 C 289.640 62.173, 288.573 60.581, 284.974 62.490 M 0.415 200 C 0.415 210.175, 0.564 214.338, 0.745 209.250 C 0.927 204.162, 0.927 195.837, 0.745 190.750 C 0.564 185.662, 0.415 189.825, 0.415 200 M 189.127 207.471 C 177.745 211.697, 161.723 224.545, 146.470 241.677 C 132.391 257.490, 128.846 263.762, 134.750 262.407 C 142.439 260.644, 156.317 255.412, 165.358 250.869 C 191.410 237.777, 205 224.801, 205 213.019 C 205 209.525, 204.555 208.699, 201.750 206.989 C 197.708 204.524, 196.987 204.552, 189.127 207.471 M 192.500 248.204 C 183.803 252.708, 172.240 256.477, 148.699 262.479 C 136.118 265.686, 127.067 268.517, 125.795 269.641 C 122.894 272.206, 114.440 290.115, 112.435 297.946 C 110.308 306.250, 110.977 312.075, 114.665 317.363 C 118.645 323.068, 122.911 325, 131.500 324.985 C 139.185 324.972, 151.289 321.367, 159.167 316.745 C 164.954 313.350, 174.307 305.801, 183.861 296.813 L 191.693 289.445 192.418 279.567 C 192.892 273.116, 194.333 265.595, 196.572 257.892 C 198.457 251.404, 200 245.849, 200 245.547 C 200 244.554, 198.568 245.061, 192.500 248.204" stroke="none" fill="#fbfbfb" fill-rule="evenodd"/></svg>