<svg xmlns="http://www.w3.org/2000/svg" viewBox="0 0 600 160" width="600" height="160" role="img" aria-label="Endue Learning banner logo">
  <defs>
    <linearGradient id="b1" x1="0" x2="1"><stop offset="0" stop-color="#2b9cff"/><stop offset="1" stop-color="#5ad1e1"/></linearGradient>
    <linearGradient id="b2" x1="0" x2="1"><stop offset="0" stop-color="#ffd166"/><stop offset="1" stop-color="#ffb86b"/></linearGradient>
  </defs>
  <rect width="600" height="160" rx="16" fill="white"/>
  <g transform="translate(20,12)">
    <circle cx="80" cy="68" r="56" fill="url(#b1)"/>
    <path d="M34 58 C58 28, 102 28, 126 58 C102 76, 58 76, 34 58 Z" fill="white"/>
    <path d="M44 68 C68 44, 92 44, 116 68 C92 86, 68 86, 44 68 Z" fill="url(#b2)"/>
    <rect x="108" y="40" width="10" height="26" rx="5" fill="#ffffff" transform="rotate(-18 113 53)"/>
    <circle cx="126" cy="34" r="6" fill="#ffffff"/>
  </g>
  <g transform="translate(170,36)" fill="#08324a">
    <path d="M18 86 q12 6 28 0" stroke="#08324a" stroke-width="6" fill="none" stroke-linecap="round"/>
    <rect x="52" y="68" width="8" height="30" rx="4" fill="#08324a"/>
  </g>
</svg>
